<svg xmlns="http://www.w3.org/2000/svg" version="1.1" xmlns:xlink="http://www.w3.org/1999/xlink" xmlns:svgjs="http://svgjs.dev/svgjs" width="1000" height="875" viewBox="0 0 1000 875"><g transform="matrix(1,0,0,1,0.8645545680342366,0.3549051790781732)"><svg viewBox="0 0 282 247" data-background-color="#331e6d" preserveAspectRatio="xMidYMid meet" height="875" width="1000" xmlns="http://www.w3.org/2000/svg" xmlns:xlink="http://www.w3.org/1999/xlink"><g id="tight-bounds" transform="matrix(1,0,0,1,-0.24380438818565153,-0.09997365579206985)"><svg viewBox="0 0 282.4876087763713 247.2" height="247.2" width="282.4876087763713"><g><svg viewBox="0 0 282.4876087763713 247.2" height="247.2" width="282.4876087763713"><g><svg viewBox="0 0 282.4876087763713 247.2" height="247.2" width="282.4876087763713"><g id="textblocktransform"><svg viewBox="0 0 282.4876087763713 247.2" height="247.2" width="282.4876087763713" id="textblock"><g><svg viewBox="0 0 282.4876087763713 247.2" height="247.2" width="282.4876087763713"><path d="M281.826 53.02C280.498 27.36 276.713 20.227 276.713 20.227 265.093-6.202 250.591-0.506 237.563 3.292 214.561 3.446 191.653 9.091 168.704 12.119 120.536 12.581 71.957 4.986 24.028 23.717 19.526 29.464-4.671 24.846 0.801 56.304 2.235 69.39 7.468 83.913 7.308 95.922 8.025 98.026 9.021 93.202 9.446 96.23 10.934 104.39 13.364 100.541 15.356 105.365 12.58 118.246 14.573 128.971 16.472 140.21 13.125 143.135 8.835 141.749 6.91 151.449 6.711 158.479 5.635 157.145 4.453 156.837 3.59 156.632 1.85 157.402 2.142 159.608 3.138 167.152-1.138 171.514 1.544 178.904-0.301 186.91 2.819 193.838 2.394 202.511 2.341 204.255 2.633 205.744 3.098 206.154 5.157 208.361 2.155 212.672 2.474 217.342 23.59 249.262 46.498 227.195 68.132 241.872 73.75 231.608 69.527 245.516 71.771 243.36 73.524 240.846 74.799 251.263 76.778 245.362 77.083 243.668 76.618 239.665 77.707 240.435 78.278 240.846 78.783 240.743 78.863 238.382 78.982 234.841 77.933 237.048 77.654 235.201 80.669 225.861 79.925 248.081 82.754 247.158 82.621 244.438 81.798 240.538 83.484 241.051 85.158 237.151 85.211 233.918 86.698 242.693 86.751 244.592 87.017 245.926 87.442 246.85 92.09 237.305 96.711 250.237 101.585 245.926 104.573 241.205 107.442 248.492 110.47 246.696 111.532 245.259 112.608 242.693 113.631 247.004 126.154 247.928 139.501 244.079 151.373 247.158 183.1 241.41 217.005 249.518 250.458 241.923 258.347 238.998 266.541 234.841 274.23 231.506 274.23 231.506 280.458 222.371 280.458 181.316S281.786 145.393 281.986 112.703C282.185 80.013 283.114 78.679 281.786 53.02Z" opacity="1" fill="#ffcf31" data-fill-palette-color="tertiary"></path><g transform="matrix(1,0,0,1,55.76832,26.230666666666668)"><svg width="170.9509687763713" viewBox="1.8300000429153442 -38.09000015258789 33.8599967956543 38.58000183105469" height="194.73866666666666" data-palette-color="#331e6d"><path d="M13.79-0.32L13.79-0.32Q12.52 0.49 10.95 0.49 9.38 0.49 8.13-0.29L8.13-0.29Q6.88 0.49 5.82 0.49 4.76 0.49 4.08 0.31 3.39 0.12 2.88-0.2L2.88-0.2Q1.83-0.83 1.83-1.78L1.83-1.78Q1.83-2.27 2.1-2.64L2.1-2.64Q2.64-2.22 3.47-2.22L3.47-2.22Q5.64-2.22 6.47-4.08L6.47-4.08 6.47-16.02Q6.47-17.14 6.01-17.68L6.01-17.68Q5.27-18.58 3.49-19.46L3.49-19.46Q5.15-20.21 5.64-20.8L5.64-20.8Q6.47-21.75 6.47-22.95L6.47-22.95 6.47-33.25Q5.64-35.13 3.47-35.13L3.47-35.13Q2.64-35.13 2.1-34.72L2.1-34.72Q1.83-35.08 1.83-35.56 1.83-36.04 2.11-36.45 2.39-36.87 2.88-37.16L2.88-37.16Q4-37.84 5.46-37.84 6.91-37.84 8.13-37.04L8.13-37.04Q9.4-37.84 10.95-37.84 12.5-37.84 13.75-37.06L13.75-37.06Q16.16-38.09 19.2-38.09 22.24-38.09 24.46-37.38 26.68-36.67 28.47-35.4L28.47-35.4Q32.18-32.76 33.37-28.44L33.37-28.44Q33.86-26.76 35.69-25.68L35.69-25.68Q33.81-24.63 33.18-22.51 32.54-20.39 31.07-18.57 29.59-16.75 27.69-15.53L27.69-15.53Q23.8-13.04 19.43-13.04L19.43-13.04Q17.53-13.04 15.45-13.53L15.45-13.53 15.45-4.2Q16.11-2.78 18.16-2.34L18.16-2.34Q18.7-2.22 19.36-2.22 20.02-2.22 20.56-2.64L20.56-2.64Q20.83-2.27 20.83-1.79 20.83-1.32 20.47-0.9 20.12-0.49 19.53-0.2L19.53-0.2Q18.24 0.49 16.7 0.49 15.16 0.49 13.79-0.32ZM15.45-31.03L15.45-19.9Q15.45-18.24 16.67-17.24L16.67-17.24Q17.8-16.31 19.56-16.31L19.56-16.31Q22.24-16.31 23.44-18.36L23.44-18.36Q23.85-19.07 23.85-20.09L23.85-20.09 23.85-31.13Q23.85-32.89 22.51-33.89L22.51-33.89Q21.29-34.81 20.08-34.81 18.87-34.81 18.1-34.58 17.33-34.35 16.75-33.89L16.75-33.89Q15.45-32.86 15.45-31.03L15.45-31.03ZM25.44-17.38L25.44-17.38Q26-17.48 26.6-18.75 27.2-20.02 27.5-21.74 27.81-23.46 28.27-24.28 28.74-25.1 29.76-25.44L29.76-25.44Q28.08-26 27.64-28.43 27.2-30.86 26.6-32.01 26-33.15 25.44-33.25L25.44-33.25Q26.34-31.23 26.34-25.44L26.34-25.44Q26.34-21.58 25.95-19.63 25.56-17.68 25.44-17.38ZM8.81-9.64L8.81-6.47Q10.03-6.93 10.16-9.67L10.16-9.67Q10.3-12.4 10.3-17.24 10.3-22.07 10.29-23.67 10.28-25.27 10.25-26.25L10.25-26.25Q10.18-29.13 9.7-29.72 9.23-30.32 8.81-30.52L8.81-30.52Q8.81-22.02 8.52-20.85L8.52-20.85Q8.18-19.87 6.86-19.46L6.86-19.46Q8.33-18.95 8.52-18.21L8.52-18.21Q8.81-17.04 8.81-9.64L8.81-9.64Z" opacity="1" transform="matrix(1,0,0,1,0,0)" fill="#331e6d" class="wordmark-text-0" data-fill-palette-color="quaternary" id="text-0"></path></svg></g></svg></g></svg></g></svg></g><g></g></svg></g><defs></defs></svg><rect width="282.4876087763713" height="247.2" fill="none" stroke="none" visibility="hidden"></rect></g></svg></g></svg>